<?xml version="1.0" encoding="utf-8"?>
<!-- Generator: Adobe Illustrator 24.0.0, SVG Export Plug-In . SVG Version: 6.00 Build 0)  -->
<svg version="1.1" id="Layer_1" xmlns="http://www.w3.org/2000/svg" xmlns:xlink="http://www.w3.org/1999/xlink" x="0px" y="0px"
	 viewBox="0 0 122.8 122.8" style="enable-background:new 0 0 122.8 122.8;" xml:space="preserve">
<g transform="matrix(0.24000000000000024,0,0,0.24000000000000024,194.62858416795723,194.55999721407886)">
	<g>
		<path d="M-503.4-463.4c-13.3,0-24,10.7-24,24v58.5c0,18.7-15.2,33.9-33.9,33.9h-167.7c-18.7,0-33.9-15.2-33.9-33.9v-347.9
			c0-18.7,15.2-33.9,33.9-33.9h167.7c18.7,0,33.9,15.2,33.9,33.9v50.5c0,13.3,10.7,24,24,24s24-10.7,24-24v-50.5
			c-0.1-45.2-36.7-81.8-81.9-81.9h-167.7c-45.2,0.1-81.8,36.7-81.9,81.9v347.9c0.1,45.2,36.7,81.8,81.9,81.9h167.7
			c45.2-0.1,81.8-36.7,81.9-81.9v-58.5C-479.4-452.6-490.2-463.4-503.4-463.4z"/>
		<path d="M-306.4-572.3l-85.4-85.3c-9.2-9.2-24.2-9.4-33.6-0.3c-9.7,9.3-9.5,25.1,0,34.7l44.5,44.5h-208c-13.3,0-24,10.7-24,24
			s10.7,24,24,24h208l-44.9,44.9c-9.4,9.4-9.4,24.6,0,33.9s24.6,9.4,33.9,0l0,0l85.4-85.4C-296.7-547-296.7-562.6-306.4-572.3
			C-306.3-572.3-306.3-572.3-306.4-572.3z"/>
	</g>
</g>
</svg>
